<svg width="24" height="34" viewBox="0 0 24 34" fill="none" xmlns="http://www.w3.org/2000/svg">
<g clip-path="url(#clip0_550_680)">
<path d="M19 4V20H7C6.46957 20 5.96086 19.7893 5.58579 19.4142C5.21071 19.0391 5 18.5304 5 18V6C5 5.46957 5.21071 4.96086 5.58579 4.58579C5.96086 4.21071 6.46957 4 7 4H19Z" stroke="white" stroke-width="2" stroke-linecap="round" stroke-linejoin="round"/>
<path d="M19 16H7C6.46957 16 5.96086 16.2107 5.58579 16.5858C5.21071 16.9609 5 17.4696 5 18" stroke="white" stroke-width="2" stroke-linecap="round" stroke-linejoin="round"/>
<path d="M12 7V13" stroke="white" stroke-width="2" stroke-linecap="round" stroke-linejoin="round"/>
<path d="M10 9H14" stroke="white" stroke-width="2" stroke-linecap="round" stroke-linejoin="round"/>
<path d="M5.91691 25.002C6.36024 25.002 6.73124 25.044 7.02991 25.128C7.33324 25.2073 7.55958 25.3403 7.70891 25.527C7.86291 25.709 7.93991 25.9563 7.93991 26.269C7.93991 26.4557 7.90958 26.626 7.84891 26.78C7.78824 26.934 7.69958 27.06 7.58291 27.158C7.47091 27.256 7.33324 27.319 7.16991 27.347V27.382C7.33791 27.4147 7.48958 27.473 7.62491 27.557C7.76024 27.641 7.86758 27.7623 7.94691 27.921C8.02624 28.0797 8.06591 28.2897 8.06591 28.551C8.06591 28.8543 7.99124 29.1157 7.84191 29.335C7.69724 29.5497 7.48724 29.7153 7.21191 29.832C6.93658 29.944 6.60991 30 6.23191 30H4.36291V25.002H5.91691ZM6.03591 26.983C6.34391 26.983 6.55624 26.934 6.67291 26.836C6.79424 26.738 6.85491 26.5957 6.85491 26.409C6.85491 26.2177 6.78491 26.08 6.64491 25.996C6.50491 25.912 6.28324 25.87 5.97991 25.87H5.41991V26.983H6.03591ZM5.41991 27.823V29.125H6.11291C6.43024 29.125 6.65191 29.0643 6.77791 28.943C6.90391 28.817 6.96691 28.6513 6.96691 28.446C6.96691 28.32 6.93891 28.2103 6.88291 28.117C6.83158 28.0237 6.74058 27.9513 6.60991 27.9C6.47924 27.8487 6.30191 27.823 6.07791 27.823H5.41991ZM10.025 26.178V30H8.98204V26.178H10.025ZM9.50704 24.68C9.66104 24.68 9.79404 24.7173 9.90604 24.792C10.018 24.862 10.074 24.995 10.074 25.191C10.074 25.3823 10.018 25.5153 9.90604 25.59C9.79404 25.6647 9.66104 25.702 9.50704 25.702C9.34837 25.702 9.21304 25.6647 9.10104 25.59C8.9937 25.5153 8.94004 25.3823 8.94004 25.191C8.94004 24.995 8.9937 24.862 9.10104 24.792C9.21304 24.7173 9.34837 24.68 9.50704 24.68ZM12.1578 25.919C12.1578 26.0637 12.1532 26.206 12.1438 26.346C12.1345 26.486 12.1252 26.5957 12.1158 26.675H12.1578C12.2605 26.5163 12.3982 26.3833 12.5708 26.276C12.7435 26.164 12.9675 26.108 13.2428 26.108C13.6722 26.108 14.0198 26.276 14.2858 26.612C14.5518 26.9433 14.6848 27.4333 14.6848 28.082C14.6848 28.516 14.6218 28.8823 14.4958 29.181C14.3745 29.475 14.2042 29.6967 13.9848 29.846C13.7655 29.9953 13.5088 30.07 13.2148 30.07C12.9348 30.07 12.7132 30.021 12.5498 29.923C12.3912 29.8203 12.2605 29.706 12.1578 29.58H12.0878L11.9128 30H11.1148V24.68H12.1578V25.919ZM12.9068 26.941C12.7248 26.941 12.5802 26.9783 12.4728 27.053C12.3655 27.1277 12.2862 27.242 12.2348 27.396C12.1882 27.5453 12.1625 27.7343 12.1578 27.963V28.075C12.1578 28.4437 12.2115 28.7283 12.3188 28.929C12.4308 29.125 12.6315 29.223 12.9208 29.223C13.1355 29.223 13.3058 29.125 13.4318 28.929C13.5578 28.7283 13.6208 28.4413 13.6208 28.068C13.6208 27.6947 13.5555 27.4147 13.4248 27.228C13.2988 27.0367 13.1262 26.941 12.9068 26.941ZM16.5875 30H15.5445V24.68H16.5875V30ZM19.2523 26.108C19.607 26.108 19.9103 26.1757 20.1623 26.311C20.419 26.4463 20.6173 26.6423 20.7573 26.899C20.8973 27.1557 20.9673 27.4707 20.9673 27.844V28.348H18.5033C18.5127 28.642 18.599 28.873 18.7623 29.041C18.9303 29.209 19.1613 29.293 19.4553 29.293C19.7027 29.293 19.9267 29.2697 20.1273 29.223C20.328 29.1717 20.5357 29.0947 20.7503 28.992V29.797C20.5637 29.8903 20.3653 29.958 20.1553 30C19.95 30.0467 19.7003 30.07 19.4063 30.07C19.0237 30.07 18.6853 30 18.3913 29.86C18.0973 29.7153 17.8663 29.4983 17.6983 29.209C17.5303 28.9197 17.4463 28.5557 17.4463 28.117C17.4463 27.669 17.521 27.298 17.6703 27.004C17.8243 26.7053 18.0367 26.4813 18.3073 26.332C18.578 26.1827 18.893 26.108 19.2523 26.108ZM19.2593 26.85C19.0587 26.85 18.8907 26.9153 18.7553 27.046C18.6247 27.1767 18.5477 27.3797 18.5243 27.655H19.9873C19.9873 27.501 19.9593 27.3633 19.9033 27.242C19.852 27.1207 19.7727 27.025 19.6653 26.955C19.558 26.885 19.4227 26.85 19.2593 26.85Z" fill="white"/>
<path d="M3.73291 31.75H21.2683V33.15H3.73291V31.75Z" fill="white"/>
</g>
<defs>
<clipPath id="clip0_550_680">
<rect width="24" height="34" fill="white"/>
</clipPath>
</defs>
</svg>
