<svg width="25" height="32" viewBox="0 0 25 32" fill="none" xmlns="http://www.w3.org/2000/svg">
<g clip-path="url(#clip0_201_1868)">
<path d="M19.1162 4V20H7.11621C6.58578 20 6.07707 19.7893 5.702 19.4142C5.32692 19.0391 5.11621 18.5304 5.11621 18V6C5.11621 5.46957 5.32692 4.96086 5.702 4.58579C6.07707 4.21071 6.58578 4 7.11621 4H19.1162Z" stroke="#AAAAAA" stroke-width="2" stroke-linecap="round" stroke-linejoin="round"/>
<path d="M19.1162 16H7.11621C6.58578 16 6.07707 16.2107 5.702 16.5858C5.32692 16.9609 5.11621 17.4696 5.11621 18" stroke="#AAAAAA" stroke-width="2" stroke-linecap="round" stroke-linejoin="round"/>
<path d="M12.1162 7V13" stroke="#AAAAAA" stroke-width="2" stroke-linecap="round" stroke-linejoin="round"/>
<path d="M10.1162 9H14.1162" stroke="#AAAAAA" stroke-width="2" stroke-linecap="round" stroke-linejoin="round"/>
<path d="M6.03312 25.002C6.47645 25.002 6.84745 25.044 7.14612 25.128C7.44945 25.2073 7.67579 25.3403 7.82512 25.527C7.97912 25.709 8.05612 25.9563 8.05612 26.269C8.05612 26.4557 8.02579 26.626 7.96512 26.78C7.90445 26.934 7.81579 27.06 7.69912 27.158C7.58712 27.256 7.44945 27.319 7.28612 27.347V27.382C7.45412 27.4147 7.60579 27.473 7.74112 27.557C7.87645 27.641 7.98379 27.7623 8.06312 27.921C8.14245 28.0797 8.18212 28.2897 8.18212 28.551C8.18212 28.8543 8.10745 29.1157 7.95812 29.335C7.81345 29.5497 7.60345 29.7153 7.32812 29.832C7.05279 29.944 6.72612 30 6.34812 30H4.47912V25.002H6.03312ZM6.15212 26.983C6.46012 26.983 6.67245 26.934 6.78912 26.836C6.91045 26.738 6.97112 26.5957 6.97112 26.409C6.97112 26.2177 6.90112 26.08 6.76112 25.996C6.62112 25.912 6.39945 25.87 6.09612 25.87H5.53612V26.983H6.15212ZM5.53612 27.823V29.125H6.22912C6.54645 29.125 6.76812 29.0643 6.89412 28.943C7.02012 28.817 7.08312 28.6513 7.08312 28.446C7.08312 28.32 7.05512 28.2103 6.99912 28.117C6.94779 28.0237 6.85679 27.9513 6.72612 27.9C6.59545 27.8487 6.41812 27.823 6.19412 27.823H5.53612ZM10.1412 26.178V30H9.09825V26.178H10.1412ZM9.62325 24.68C9.77725 24.68 9.91025 24.7173 10.0222 24.792C10.1342 24.862 10.1902 24.995 10.1902 25.191C10.1902 25.3823 10.1342 25.5153 10.0222 25.59C9.91025 25.6647 9.77725 25.702 9.62325 25.702C9.46458 25.702 9.32925 25.6647 9.21725 25.59C9.10991 25.5153 9.05625 25.3823 9.05625 25.191C9.05625 24.995 9.10991 24.862 9.21725 24.792C9.32925 24.7173 9.46458 24.68 9.62325 24.68ZM12.2741 25.919C12.2741 26.0637 12.2694 26.206 12.2601 26.346C12.2507 26.486 12.2414 26.5957 12.2321 26.675H12.2741C12.3767 26.5163 12.5144 26.3833 12.6871 26.276C12.8597 26.164 13.0837 26.108 13.3591 26.108C13.7884 26.108 14.1361 26.276 14.4021 26.612C14.6681 26.9433 14.8011 27.4333 14.8011 28.082C14.8011 28.516 14.7381 28.8823 14.6121 29.181C14.4907 29.475 14.3204 29.6967 14.1011 29.846C13.8817 29.9953 13.6251 30.07 13.3311 30.07C13.0511 30.07 12.8294 30.021 12.6661 29.923C12.5074 29.8203 12.3767 29.706 12.2741 29.58H12.2041L12.0291 30H11.2311V24.68H12.2741V25.919ZM13.0231 26.941C12.8411 26.941 12.6964 26.9783 12.5891 27.053C12.4817 27.1277 12.4024 27.242 12.3511 27.396C12.3044 27.5453 12.2787 27.7343 12.2741 27.963V28.075C12.2741 28.4437 12.3277 28.7283 12.4351 28.929C12.5471 29.125 12.7477 29.223 13.0371 29.223C13.2517 29.223 13.4221 29.125 13.5481 28.929C13.6741 28.7283 13.7371 28.4413 13.7371 28.068C13.7371 27.6947 13.6717 27.4147 13.5411 27.228C13.4151 27.0367 13.2424 26.941 13.0231 26.941ZM16.7037 30H15.6607V24.68H16.7037V30ZM19.3686 26.108C19.7232 26.108 20.0266 26.1757 20.2786 26.311C20.5352 26.4463 20.7336 26.6423 20.8736 26.899C21.0136 27.1557 21.0836 27.4707 21.0836 27.844V28.348H18.6196C18.6289 28.642 18.7152 28.873 18.8786 29.041C19.0466 29.209 19.2776 29.293 19.5716 29.293C19.8189 29.293 20.0429 29.2697 20.2436 29.223C20.4442 29.1717 20.6519 29.0947 20.8666 28.992V29.797C20.6799 29.8903 20.4816 29.958 20.2716 30C20.0662 30.0467 19.8166 30.07 19.5226 30.07C19.1399 30.07 18.8016 30 18.5076 29.86C18.2136 29.7153 17.9826 29.4983 17.8146 29.209C17.6466 28.9197 17.5626 28.5557 17.5626 28.117C17.5626 27.669 17.6372 27.298 17.7866 27.004C17.9406 26.7053 18.1529 26.4813 18.4236 26.332C18.6942 26.1827 19.0092 26.108 19.3686 26.108ZM19.3756 26.85C19.1749 26.85 19.0069 26.9153 18.8716 27.046C18.7409 27.1767 18.6639 27.3797 18.6406 27.655H20.1036C20.1036 27.501 20.0756 27.3633 20.0196 27.242C19.9682 27.1207 19.8889 27.025 19.7816 26.955C19.6742 26.885 19.5389 26.85 19.3756 26.85Z" fill="#AAAAAA"/>
</g>
<defs>
<clipPath id="clip0_201_1868">
<rect width="24" height="32" fill="white" transform="translate(0.116211)"/>
</clipPath>
</defs>
</svg>
