<svg width="24" height="34" viewBox="0 0 24 34" fill="none" xmlns="http://www.w3.org/2000/svg">
<g clip-path="url(#clip0_550_688)">
<path d="M5 12H3L12 3L21 12H19" stroke="white" stroke-width="2" stroke-linecap="round" stroke-linejoin="round"/>
<path d="M5 12V19C5 19.5304 5.21071 20.0391 5.58579 20.4142C5.96086 20.7893 6.46957 21 7 21H17C17.5304 21 18.0391 20.7893 18.4142 20.4142C18.7893 20.0391 19 19.5304 19 19V12" stroke="white" stroke-width="2" stroke-linecap="round" stroke-linejoin="round"/>
<path d="M9 21V15C9 14.4696 9.21071 13.9609 9.58579 13.5858C9.96086 13.2107 10.4696 13 11 13H13C13.5304 13 14.0391 13.2107 14.4142 13.5858C14.7893 13.9609 15 14.4696 15 15V21" stroke="white" stroke-width="2" stroke-linecap="round" stroke-linejoin="round"/>
<path d="M6.87539 30H5.81839V27.844H3.83739V30H2.78039V25.002H3.83739V26.962H5.81839V25.002H6.87539V30ZM11.5209 28.082C11.5209 28.3993 11.4766 28.6817 11.3879 28.929C11.3039 29.1763 11.1803 29.3863 11.0169 29.559C10.8583 29.727 10.6646 29.8553 10.4359 29.944C10.2073 30.028 9.94826 30.07 9.65893 30.07C9.39293 30.07 9.1456 30.028 8.91693 29.944C8.69293 29.8553 8.49926 29.727 8.33593 29.559C8.1726 29.3863 8.04426 29.1763 7.95093 28.929C7.86226 28.6817 7.81793 28.3993 7.81793 28.082C7.81793 27.6573 7.8926 27.3003 8.04193 27.011C8.19126 26.717 8.40593 26.493 8.68593 26.339C8.96593 26.185 9.29726 26.108 9.67993 26.108C10.0393 26.108 10.3566 26.185 10.6319 26.339C10.9073 26.493 11.1243 26.717 11.2829 27.011C11.4416 27.3003 11.5209 27.6573 11.5209 28.082ZM8.88193 28.082C8.88193 28.334 8.9076 28.5463 8.95893 28.719C9.01493 28.887 9.10126 29.0153 9.21793 29.104C9.3346 29.188 9.48626 29.23 9.67293 29.23C9.8596 29.23 10.0089 29.188 10.1209 29.104C10.2376 29.0153 10.3216 28.887 10.3729 28.719C10.4289 28.5463 10.4569 28.334 10.4569 28.082C10.4569 27.83 10.4289 27.62 10.3729 27.452C10.3216 27.284 10.2376 27.158 10.1209 27.074C10.0043 26.99 9.8526 26.948 9.66593 26.948C9.3906 26.948 9.18993 27.0437 9.06393 27.235C8.9426 27.4217 8.88193 27.704 8.88193 28.082ZM16.8699 26.108C17.3039 26.108 17.6306 26.22 17.8499 26.444C18.0739 26.6633 18.1859 27.018 18.1859 27.508V30H17.1429V27.767C17.1429 27.4917 17.0962 27.2863 17.0029 27.151C16.9096 27.011 16.7649 26.941 16.5689 26.941C16.2936 26.941 16.0976 27.039 15.9809 27.235C15.8642 27.431 15.8059 27.7133 15.8059 28.082V30H14.7629V27.767C14.7629 27.585 14.7419 27.4333 14.6999 27.312C14.6579 27.1907 14.5949 27.0997 14.5109 27.039C14.4269 26.9737 14.3196 26.941 14.1889 26.941C13.9976 26.941 13.8459 26.99 13.7339 27.088C13.6219 27.186 13.5426 27.3283 13.4959 27.515C13.4492 27.7017 13.4259 27.9303 13.4259 28.201V30H12.3829V26.178H13.1809L13.3209 26.668H13.3769C13.4562 26.5373 13.5542 26.4323 13.6709 26.353C13.7876 26.269 13.9159 26.2083 14.0559 26.171C14.2006 26.129 14.3452 26.108 14.4899 26.108C14.7699 26.108 15.0079 26.1547 15.2039 26.248C15.3999 26.3367 15.5492 26.4767 15.6519 26.668H15.7429C15.8596 26.472 16.0206 26.3297 16.2259 26.241C16.4359 26.1523 16.6506 26.108 16.8699 26.108ZM20.8349 26.108C21.1895 26.108 21.4929 26.1757 21.7449 26.311C22.0015 26.4463 22.1999 26.6423 22.3399 26.899C22.4799 27.1557 22.5499 27.4707 22.5499 27.844V28.348H20.0859C20.0952 28.642 20.1815 28.873 20.3449 29.041C20.5129 29.209 20.7439 29.293 21.0379 29.293C21.2852 29.293 21.5092 29.2697 21.7099 29.223C21.9105 29.1717 22.1182 29.0947 22.3329 28.992V29.797C22.1462 29.8903 21.9479 29.958 21.7379 30C21.5325 30.0467 21.2829 30.07 20.9889 30.07C20.6062 30.07 20.2679 30 19.9739 29.86C19.6799 29.7153 19.4489 29.4983 19.2809 29.209C19.1129 28.9197 19.0289 28.5557 19.0289 28.117C19.0289 27.669 19.1035 27.298 19.2529 27.004C19.4069 26.7053 19.6192 26.4813 19.8899 26.332C20.1605 26.1827 20.4755 26.108 20.8349 26.108ZM20.8419 26.85C20.6412 26.85 20.4732 26.9153 20.3379 27.046C20.2072 27.1767 20.1302 27.3797 20.1069 27.655H21.5699C21.5699 27.501 21.5419 27.3633 21.4859 27.242C21.4345 27.1207 21.3552 27.025 21.2479 26.955C21.1405 26.885 21.0052 26.85 20.8419 26.85Z" fill="white"/>
<path d="M2.15039 31.75H22.8509V33.15H2.15039V31.75Z" fill="white"/>
</g>
<defs>
<clipPath id="clip0_550_688">
<rect width="24" height="34" fill="white"/>
</clipPath>
</defs>
</svg>
