<svg width="25" height="32" viewBox="0 0 25 32" fill="none" xmlns="http://www.w3.org/2000/svg">
<g clip-path="url(#clip0_367_2712)">
<path d="M5.11621 12H3.11621L12.1162 3L21.1162 12H19.1162" stroke="#AAAAAA" stroke-width="2" stroke-linecap="round" stroke-linejoin="round"/>
<path d="M5.11621 12V19C5.11621 19.5304 5.32692 20.0391 5.702 20.4142C6.07707 20.7893 6.58578 21 7.11621 21H17.1162C17.6466 21 18.1554 20.7893 18.5304 20.4142C18.9055 20.0391 19.1162 19.5304 19.1162 19V12" stroke="#AAAAAA" stroke-width="2" stroke-linecap="round" stroke-linejoin="round"/>
<path d="M9.11621 21V15C9.11621 14.4696 9.32693 13.9609 9.702 13.5858C10.0771 13.2107 10.5858 13 11.1162 13H13.1162C13.6466 13 14.1554 13.2107 14.5304 13.5858C14.9055 13.9609 15.1162 14.4696 15.1162 15V21" stroke="#AAAAAA" stroke-width="2" stroke-linecap="round" stroke-linejoin="round"/>
<path d="M6.9916 30H5.9346V27.844H3.9536V30H2.8966V25.002H3.9536V26.962H5.9346V25.002H6.9916V30ZM11.6371 28.082C11.6371 28.3993 11.5928 28.6817 11.5041 28.929C11.4201 29.1763 11.2965 29.3863 11.1331 29.559C10.9745 29.727 10.7808 29.8553 10.5521 29.944C10.3235 30.028 10.0645 30.07 9.77514 30.07C9.50914 30.07 9.26181 30.028 9.03314 29.944C8.80914 29.8553 8.61547 29.727 8.45214 29.559C8.28881 29.3863 8.16047 29.1763 8.06714 28.929C7.97847 28.6817 7.93414 28.3993 7.93414 28.082C7.93414 27.6573 8.00881 27.3003 8.15814 27.011C8.30747 26.717 8.52214 26.493 8.80214 26.339C9.08214 26.185 9.41347 26.108 9.79614 26.108C10.1555 26.108 10.4728 26.185 10.7481 26.339C11.0235 26.493 11.2405 26.717 11.3991 27.011C11.5578 27.3003 11.6371 27.6573 11.6371 28.082ZM8.99814 28.082C8.99814 28.334 9.02381 28.5463 9.07514 28.719C9.13114 28.887 9.21747 29.0153 9.33414 29.104C9.45081 29.188 9.60247 29.23 9.78914 29.23C9.97581 29.23 10.1251 29.188 10.2371 29.104C10.3538 29.0153 10.4378 28.887 10.4891 28.719C10.5451 28.5463 10.5731 28.334 10.5731 28.082C10.5731 27.83 10.5451 27.62 10.4891 27.452C10.4378 27.284 10.3538 27.158 10.2371 27.074C10.1205 26.99 9.96881 26.948 9.78214 26.948C9.50681 26.948 9.30614 27.0437 9.18014 27.235C9.05881 27.4217 8.99814 27.704 8.99814 28.082ZM16.9861 26.108C17.4201 26.108 17.7468 26.22 17.9661 26.444C18.1901 26.6633 18.3021 27.018 18.3021 27.508V30H17.2591V27.767C17.2591 27.4917 17.2125 27.2863 17.1191 27.151C17.0258 27.011 16.8811 26.941 16.6851 26.941C16.4098 26.941 16.2138 27.039 16.0971 27.235C15.9805 27.431 15.9221 27.7133 15.9221 28.082V30H14.8791V27.767C14.8791 27.585 14.8581 27.4333 14.8161 27.312C14.7741 27.1907 14.7111 27.0997 14.6271 27.039C14.5431 26.9737 14.4358 26.941 14.3051 26.941C14.1138 26.941 13.9621 26.99 13.8501 27.088C13.7381 27.186 13.6588 27.3283 13.6121 27.515C13.5655 27.7017 13.5421 27.9303 13.5421 28.201V30H12.4991V26.178H13.2971L13.4371 26.668H13.4931C13.5725 26.5373 13.6705 26.4323 13.7871 26.353C13.9038 26.269 14.0321 26.2083 14.1721 26.171C14.3168 26.129 14.4615 26.108 14.6061 26.108C14.8861 26.108 15.1241 26.1547 15.3201 26.248C15.5161 26.3367 15.6655 26.4767 15.7681 26.668H15.8591C15.9758 26.472 16.1368 26.3297 16.3421 26.241C16.5521 26.1523 16.7668 26.108 16.9861 26.108ZM20.9511 26.108C21.3057 26.108 21.6091 26.1757 21.8611 26.311C22.1177 26.4463 22.3161 26.6423 22.4561 26.899C22.5961 27.1557 22.6661 27.4707 22.6661 27.844V28.348H20.2021C20.2114 28.642 20.2977 28.873 20.4611 29.041C20.6291 29.209 20.8601 29.293 21.1541 29.293C21.4014 29.293 21.6254 29.2697 21.8261 29.223C22.0267 29.1717 22.2344 29.0947 22.4491 28.992V29.797C22.2624 29.8903 22.0641 29.958 21.8541 30C21.6487 30.0467 21.3991 30.07 21.1051 30.07C20.7224 30.07 20.3841 30 20.0901 29.86C19.7961 29.7153 19.5651 29.4983 19.3971 29.209C19.2291 28.9197 19.1451 28.5557 19.1451 28.117C19.1451 27.669 19.2197 27.298 19.3691 27.004C19.5231 26.7053 19.7354 26.4813 20.0061 26.332C20.2767 26.1827 20.5917 26.108 20.9511 26.108ZM20.9581 26.85C20.7574 26.85 20.5894 26.9153 20.4541 27.046C20.3234 27.1767 20.2464 27.3797 20.2231 27.655H21.6861C21.6861 27.501 21.6581 27.3633 21.6021 27.242C21.5507 27.1207 21.4714 27.025 21.3641 26.955C21.2567 26.885 21.1214 26.85 20.9581 26.85Z" fill="#AAAAAA"/>
</g>
<defs>
<clipPath id="clip0_367_2712">
<rect x="0.116211" width="24" height="32" fill="white"/>
</clipPath>
</defs>
</svg>
