<svg width="33" height="32" viewBox="0 0 33 32" fill="none" xmlns="http://www.w3.org/2000/svg">
<g clip-path="url(#clip0_367_2718)">
<path d="M13.8305 21H18.4019V12H24.1162V8H18.4019V3H13.8305V8H8.11621V12H13.8305V21Z" stroke="#AAAAAA" stroke-width="2" stroke-linecap="round" stroke-linejoin="round"/>
<path d="M4.46275 28.614C4.46275 28.908 4.39042 29.1647 4.24575 29.384C4.10108 29.6033 3.89108 29.7737 3.61575 29.895C3.34508 30.0117 3.01375 30.07 2.62175 30.07C2.44908 30.07 2.27875 30.0583 2.11075 30.035C1.94742 30.0117 1.78875 29.979 1.63475 29.937C1.48542 29.8903 1.34308 29.8343 1.20775 29.769V28.782C1.44575 28.8847 1.69075 28.9803 1.94275 29.069C2.19942 29.153 2.45375 29.195 2.70575 29.195C2.87842 29.195 3.01608 29.1717 3.11875 29.125C3.22608 29.0783 3.30308 29.0153 3.34975 28.936C3.40108 28.8567 3.42675 28.7657 3.42675 28.663C3.42675 28.537 3.38242 28.4297 3.29375 28.341C3.20975 28.2523 3.09542 28.1707 2.95075 28.096C2.80608 28.0167 2.64042 27.9327 2.45375 27.844C2.33708 27.788 2.21108 27.7227 2.07575 27.648C1.94042 27.5687 1.80975 27.473 1.68375 27.361C1.56242 27.2443 1.46208 27.1043 1.38275 26.941C1.30342 26.7777 1.26375 26.5817 1.26375 26.353C1.26375 26.0543 1.33142 25.8 1.46675 25.59C1.60675 25.3753 1.80275 25.212 2.05475 25.1C2.31142 24.988 2.61242 24.932 2.95775 24.932C3.21908 24.932 3.46642 24.9623 3.69975 25.023C3.93775 25.0837 4.18508 25.17 4.44175 25.282L4.09875 26.108C3.87008 26.0147 3.66475 25.9423 3.48275 25.891C3.30075 25.8397 3.11408 25.814 2.92275 25.814C2.79208 25.814 2.68008 25.835 2.58675 25.877C2.49342 25.919 2.42108 25.9773 2.36975 26.052C2.32308 26.1267 2.29975 26.2153 2.29975 26.318C2.29975 26.4347 2.33475 26.535 2.40475 26.619C2.47475 26.6983 2.57975 26.7753 2.71975 26.85C2.85975 26.9247 3.03475 27.0133 3.24475 27.116C3.50142 27.2373 3.71842 27.3633 3.89575 27.494C4.07775 27.6247 4.21775 27.7787 4.31575 27.956C4.41375 28.1333 4.46275 28.3527 4.46275 28.614ZM6.86222 26.108C7.21689 26.108 7.52022 26.1757 7.77222 26.311C8.02889 26.4463 8.22722 26.6423 8.36722 26.899C8.50722 27.1557 8.57722 27.4707 8.57722 27.844V28.348H6.11322C6.12255 28.642 6.20889 28.873 6.37222 29.041C6.54022 29.209 6.77122 29.293 7.06522 29.293C7.31255 29.293 7.53655 29.2697 7.73722 29.223C7.93789 29.1717 8.14555 29.0947 8.36022 28.992V29.797C8.17355 29.8903 7.97522 29.958 7.76522 30C7.55989 30.0467 7.31022 30.07 7.01622 30.07C6.63355 30.07 6.29522 30 6.00122 29.86C5.70722 29.7153 5.47622 29.4983 5.30822 29.209C5.14022 28.9197 5.05622 28.5557 5.05622 28.117C5.05622 27.669 5.13089 27.298 5.28022 27.004C5.43422 26.7053 5.64655 26.4813 5.91722 26.332C6.18789 26.1827 6.50289 26.108 6.86222 26.108ZM6.86922 26.85C6.66855 26.85 6.50055 26.9153 6.36522 27.046C6.23455 27.1767 6.15755 27.3797 6.13422 27.655H7.59722C7.59722 27.501 7.56922 27.3633 7.51322 27.242C7.46189 27.1207 7.38255 27.025 7.27522 26.955C7.16789 26.885 7.03255 26.85 6.86922 26.85ZM11.558 26.108C11.6093 26.108 11.67 26.1103 11.74 26.115C11.81 26.1197 11.866 26.1267 11.908 26.136L11.831 27.116C11.7983 27.1067 11.7493 27.0997 11.684 27.095C11.6233 27.0857 11.5696 27.081 11.523 27.081C11.3876 27.081 11.257 27.0997 11.131 27.137C11.005 27.1697 10.8906 27.2233 10.788 27.298C10.69 27.3727 10.6106 27.473 10.55 27.599C10.494 27.7203 10.466 27.872 10.466 28.054V30H9.42296V26.178H10.214L10.368 26.822H10.417C10.4916 26.6913 10.585 26.5723 10.697 26.465C10.809 26.3577 10.9373 26.2713 11.082 26.206C11.2313 26.1407 11.39 26.108 11.558 26.108ZM17.0887 26.108C17.5227 26.108 17.8493 26.22 18.0687 26.444C18.2927 26.6633 18.4047 27.018 18.4047 27.508V30H17.3617V27.767C17.3617 27.4917 17.315 27.2863 17.2217 27.151C17.1283 27.011 16.9837 26.941 16.7877 26.941C16.5123 26.941 16.3163 27.039 16.1997 27.235C16.083 27.431 16.0247 27.7133 16.0247 28.082V30H14.9817V27.767C14.9817 27.585 14.9607 27.4333 14.9187 27.312C14.8767 27.1907 14.8137 27.0997 14.7297 27.039C14.6457 26.9737 14.5383 26.941 14.4077 26.941C14.2163 26.941 14.0647 26.99 13.9527 27.088C13.8407 27.186 13.7613 27.3283 13.7147 27.515C13.668 27.7017 13.6447 27.9303 13.6447 28.201V30H12.6017V26.178H13.3997L13.5397 26.668H13.5957C13.675 26.5373 13.773 26.4323 13.8897 26.353C14.0063 26.269 14.1347 26.2083 14.2747 26.171C14.4193 26.129 14.564 26.108 14.7087 26.108C14.9887 26.108 15.2267 26.1547 15.4227 26.248C15.6187 26.3367 15.768 26.4767 15.8707 26.668H15.9617C16.0783 26.472 16.2393 26.3297 16.4447 26.241C16.6547 26.1523 16.8693 26.108 17.0887 26.108ZM22.9506 28.082C22.9506 28.3993 22.9063 28.6817 22.8176 28.929C22.7336 29.1763 22.61 29.3863 22.4466 29.559C22.288 29.727 22.0943 29.8553 21.8656 29.944C21.637 30.028 21.378 30.07 21.0886 30.07C20.8226 30.07 20.5753 30.028 20.3466 29.944C20.1226 29.8553 19.929 29.727 19.7656 29.559C19.6023 29.3863 19.474 29.1763 19.3806 28.929C19.292 28.6817 19.2476 28.3993 19.2476 28.082C19.2476 27.6573 19.3223 27.3003 19.4716 27.011C19.621 26.717 19.8356 26.493 20.1156 26.339C20.3956 26.185 20.727 26.108 21.1096 26.108C21.469 26.108 21.7863 26.185 22.0616 26.339C22.337 26.493 22.554 26.717 22.7126 27.011C22.8713 27.3003 22.9506 27.6573 22.9506 28.082ZM20.3116 28.082C20.3116 28.334 20.3373 28.5463 20.3886 28.719C20.4446 28.887 20.531 29.0153 20.6476 29.104C20.7643 29.188 20.916 29.23 21.1026 29.23C21.2893 29.23 21.4386 29.188 21.5506 29.104C21.6673 29.0153 21.7513 28.887 21.8026 28.719C21.8586 28.5463 21.8866 28.334 21.8866 28.082C21.8866 27.83 21.8586 27.62 21.8026 27.452C21.7513 27.284 21.6673 27.158 21.5506 27.074C21.434 26.99 21.2823 26.948 21.0956 26.948C20.8203 26.948 20.6196 27.0437 20.4936 27.235C20.3723 27.4217 20.3116 27.704 20.3116 28.082ZM25.9826 26.108C26.3933 26.108 26.7223 26.22 26.9696 26.444C27.2169 26.6633 27.3406 27.018 27.3406 27.508V30H26.2976V27.767C26.2976 27.4917 26.2486 27.2863 26.1506 27.151C26.0526 27.011 25.8963 26.941 25.6816 26.941C25.3643 26.941 25.1473 27.0507 25.0306 27.27C24.9139 27.4847 24.8556 27.795 24.8556 28.201V30H23.8126V26.178H24.6106L24.7506 26.668H24.8066C24.8906 26.5373 24.9933 26.4323 25.1146 26.353C25.2359 26.269 25.3713 26.2083 25.5206 26.171C25.6699 26.129 25.8239 26.108 25.9826 26.108ZM31.0802 28.866C31.0802 29.1227 31.0195 29.342 30.8982 29.524C30.7769 29.7013 30.5949 29.8367 30.3522 29.93C30.1095 30.0233 29.8085 30.07 29.4492 30.07C29.1832 30.07 28.9545 30.0513 28.7632 30.014C28.5719 29.9813 28.3805 29.9253 28.1892 29.846V28.985C28.3945 29.0783 28.6162 29.1553 28.8542 29.216C29.0922 29.2767 29.3022 29.307 29.4842 29.307C29.6895 29.307 29.8342 29.2767 29.9182 29.216C30.0069 29.1553 30.0512 29.076 30.0512 28.978C30.0512 28.9127 30.0325 28.8543 29.9952 28.803C29.9625 28.7517 29.8879 28.6933 29.7712 28.628C29.6545 28.5627 29.4725 28.4787 29.2252 28.376C28.9872 28.2733 28.7912 28.173 28.6372 28.075C28.4832 27.9723 28.3689 27.851 28.2942 27.711C28.2195 27.5663 28.1822 27.3867 28.1822 27.172C28.1822 26.8173 28.3199 26.5513 28.5952 26.374C28.8705 26.1967 29.2369 26.108 29.6942 26.108C29.9322 26.108 30.1585 26.1313 30.3732 26.178C30.5879 26.2247 30.8095 26.3017 31.0382 26.409L30.7232 27.158C30.5972 27.102 30.4759 27.053 30.3592 27.011C30.2425 26.969 30.1282 26.9363 30.0162 26.913C29.9089 26.8897 29.7969 26.878 29.6802 26.878C29.5262 26.878 29.4095 26.899 29.3302 26.941C29.2555 26.983 29.2182 27.046 29.2182 27.13C29.2182 27.1907 29.2369 27.2467 29.2742 27.298C29.3162 27.3447 29.3932 27.396 29.5052 27.452C29.6219 27.508 29.7922 27.5827 30.0162 27.676C30.2355 27.7647 30.4245 27.858 30.5832 27.956C30.7419 28.0493 30.8632 28.1683 30.9472 28.313C31.0359 28.453 31.0802 28.6373 31.0802 28.866Z" fill="#AAAAAA"/>
</g>
<defs>
<clipPath id="clip0_367_2718">
<rect width="32" height="32" fill="white" transform="translate(0.116211)"/>
</clipPath>
</defs>
</svg>
