<svg width="32" height="34" viewBox="0 0 32 34" fill="none" xmlns="http://www.w3.org/2000/svg">
<g clip-path="url(#clip0_550_695)">
<path d="M13.7143 21H18.2857V12H24V8H18.2857V3H13.7143V8H8V12H13.7143V21Z" stroke="white" stroke-width="2" stroke-linecap="round" stroke-linejoin="round"/>
<path d="M4.34654 28.614C4.34654 28.908 4.27421 29.1647 4.12954 29.384C3.98487 29.6033 3.77487 29.7737 3.49954 29.895C3.22887 30.0117 2.89754 30.07 2.50554 30.07C2.33287 30.07 2.16254 30.0583 1.99454 30.035C1.83121 30.0117 1.67254 29.979 1.51854 29.937C1.36921 29.8903 1.22687 29.8343 1.09154 29.769V28.782C1.32954 28.8847 1.57454 28.9803 1.82654 29.069C2.08321 29.153 2.33754 29.195 2.58954 29.195C2.76221 29.195 2.89987 29.1717 3.00254 29.125C3.10987 29.0783 3.18687 29.0153 3.23354 28.936C3.28487 28.8567 3.31054 28.7657 3.31054 28.663C3.31054 28.537 3.26621 28.4297 3.17754 28.341C3.09354 28.2523 2.97921 28.1707 2.83454 28.096C2.68987 28.0167 2.52421 27.9327 2.33754 27.844C2.22087 27.788 2.09487 27.7227 1.95954 27.648C1.82421 27.5687 1.69354 27.473 1.56754 27.361C1.44621 27.2443 1.34587 27.1043 1.26654 26.941C1.18721 26.7777 1.14754 26.5817 1.14754 26.353C1.14754 26.0543 1.21521 25.8 1.35054 25.59C1.49054 25.3753 1.68654 25.212 1.93854 25.1C2.19521 24.988 2.49621 24.932 2.84154 24.932C3.10287 24.932 3.35021 24.9623 3.58354 25.023C3.82154 25.0837 4.06887 25.17 4.32554 25.282L3.98254 26.108C3.75387 26.0147 3.54854 25.9423 3.36654 25.891C3.18454 25.8397 2.99787 25.814 2.80654 25.814C2.67587 25.814 2.56387 25.835 2.47054 25.877C2.37721 25.919 2.30487 25.9773 2.25354 26.052C2.20687 26.1267 2.18354 26.2153 2.18354 26.318C2.18354 26.4347 2.21854 26.535 2.28854 26.619C2.35854 26.6983 2.46354 26.7753 2.60354 26.85C2.74354 26.9247 2.91854 27.0133 3.12854 27.116C3.38521 27.2373 3.60221 27.3633 3.77954 27.494C3.96154 27.6247 4.10154 27.7787 4.19954 27.956C4.29754 28.1333 4.34654 28.3527 4.34654 28.614ZM6.74601 26.108C7.10067 26.108 7.40401 26.1757 7.65601 26.311C7.91267 26.4463 8.11101 26.6423 8.25101 26.899C8.39101 27.1557 8.46101 27.4707 8.46101 27.844V28.348H5.99701C6.00634 28.642 6.09267 28.873 6.25601 29.041C6.42401 29.209 6.65501 29.293 6.94901 29.293C7.19634 29.293 7.42034 29.2697 7.62101 29.223C7.82167 29.1717 8.02934 29.0947 8.24401 28.992V29.797C8.05734 29.8903 7.85901 29.958 7.64901 30C7.44367 30.0467 7.19401 30.07 6.90001 30.07C6.51734 30.07 6.17901 30 5.88501 29.86C5.59101 29.7153 5.36001 29.4983 5.19201 29.209C5.02401 28.9197 4.94001 28.5557 4.94001 28.117C4.94001 27.669 5.01467 27.298 5.16401 27.004C5.31801 26.7053 5.53034 26.4813 5.80101 26.332C6.07167 26.1827 6.38667 26.108 6.74601 26.108ZM6.75301 26.85C6.55234 26.85 6.38434 26.9153 6.24901 27.046C6.11834 27.1767 6.04134 27.3797 6.01801 27.655H7.48101C7.48101 27.501 7.45301 27.3633 7.39701 27.242C7.34567 27.1207 7.26634 27.025 7.15901 26.955C7.05167 26.885 6.91634 26.85 6.75301 26.85ZM11.4417 26.108C11.4931 26.108 11.5537 26.1103 11.6237 26.115C11.6937 26.1197 11.7497 26.1267 11.7918 26.136L11.7147 27.116C11.6821 27.1067 11.6331 27.0997 11.5677 27.095C11.5071 27.0857 11.4534 27.081 11.4067 27.081C11.2714 27.081 11.1407 27.0997 11.0148 27.137C10.8887 27.1697 10.7744 27.2233 10.6717 27.298C10.5737 27.3727 10.4944 27.473 10.4337 27.599C10.3777 27.7203 10.3497 27.872 10.3497 28.054V30H9.30675V26.178H10.0977L10.2517 26.822H10.3007C10.3754 26.6913 10.4687 26.5723 10.5807 26.465C10.6927 26.3577 10.8211 26.2713 10.9658 26.206C11.1151 26.1407 11.2737 26.108 11.4417 26.108ZM16.9725 26.108C17.4065 26.108 17.7331 26.22 17.9525 26.444C18.1765 26.6633 18.2885 27.018 18.2885 27.508V30H17.2455V27.767C17.2455 27.4917 17.1988 27.2863 17.1055 27.151C17.0121 27.011 16.8675 26.941 16.6715 26.941C16.3961 26.941 16.2001 27.039 16.0835 27.235C15.9668 27.431 15.9085 27.7133 15.9085 28.082V30H14.8655V27.767C14.8655 27.585 14.8445 27.4333 14.8025 27.312C14.7605 27.1907 14.6975 27.0997 14.6135 27.039C14.5295 26.9737 14.4221 26.941 14.2915 26.941C14.1001 26.941 13.9485 26.99 13.8365 27.088C13.7245 27.186 13.6451 27.3283 13.5985 27.515C13.5518 27.7017 13.5285 27.9303 13.5285 28.201V30H12.4855V26.178H13.2835L13.4235 26.668H13.4795C13.5588 26.5373 13.6568 26.4323 13.7735 26.353C13.8901 26.269 14.0185 26.2083 14.1585 26.171C14.3031 26.129 14.4478 26.108 14.5925 26.108C14.8725 26.108 15.1105 26.1547 15.3065 26.248C15.5025 26.3367 15.6518 26.4767 15.7545 26.668H15.8455C15.9621 26.472 16.1231 26.3297 16.3285 26.241C16.5385 26.1523 16.7531 26.108 16.9725 26.108ZM22.8344 28.082C22.8344 28.3993 22.7901 28.6817 22.7014 28.929C22.6174 29.1763 22.4937 29.3863 22.3304 29.559C22.1717 29.727 21.9781 29.8553 21.7494 29.944C21.5207 30.028 21.2617 30.07 20.9724 30.07C20.7064 30.07 20.4591 30.028 20.2304 29.944C20.0064 29.8553 19.8127 29.727 19.6494 29.559C19.4861 29.3863 19.3577 29.1763 19.2644 28.929C19.1757 28.6817 19.1314 28.3993 19.1314 28.082C19.1314 27.6573 19.2061 27.3003 19.3554 27.011C19.5047 26.717 19.7194 26.493 19.9994 26.339C20.2794 26.185 20.6107 26.108 20.9934 26.108C21.3527 26.108 21.6701 26.185 21.9454 26.339C22.2207 26.493 22.4377 26.717 22.5964 27.011C22.7551 27.3003 22.8344 27.6573 22.8344 28.082ZM20.1954 28.082C20.1954 28.334 20.2211 28.5463 20.2724 28.719C20.3284 28.887 20.4147 29.0153 20.5314 29.104C20.6481 29.188 20.7997 29.23 20.9864 29.23C21.1731 29.23 21.3224 29.188 21.4344 29.104C21.5511 29.0153 21.6351 28.887 21.6864 28.719C21.7424 28.5463 21.7704 28.334 21.7704 28.082C21.7704 27.83 21.7424 27.62 21.6864 27.452C21.6351 27.284 21.5511 27.158 21.4344 27.074C21.3177 26.99 21.1661 26.948 20.9794 26.948C20.7041 26.948 20.5034 27.0437 20.3774 27.235C20.2561 27.4217 20.1954 27.704 20.1954 28.082ZM25.8664 26.108C26.2771 26.108 26.6061 26.22 26.8534 26.444C27.1007 26.6633 27.2244 27.018 27.2244 27.508V30H26.1814V27.767C26.1814 27.4917 26.1324 27.2863 26.0344 27.151C25.9364 27.011 25.7801 26.941 25.5654 26.941C25.2481 26.941 25.0311 27.0507 24.9144 27.27C24.7977 27.4847 24.7394 27.795 24.7394 28.201V30H23.6964V26.178H24.4944L24.6344 26.668H24.6904C24.7744 26.5373 24.8771 26.4323 24.9984 26.353C25.1197 26.269 25.2551 26.2083 25.4044 26.171C25.5537 26.129 25.7077 26.108 25.8664 26.108ZM30.964 28.866C30.964 29.1227 30.9033 29.342 30.782 29.524C30.6607 29.7013 30.4787 29.8367 30.236 29.93C29.9933 30.0233 29.6923 30.07 29.333 30.07C29.067 30.07 28.8383 30.0513 28.647 30.014C28.4557 29.9813 28.2643 29.9253 28.073 29.846V28.985C28.2783 29.0783 28.5 29.1553 28.738 29.216C28.976 29.2767 29.186 29.307 29.368 29.307C29.5733 29.307 29.718 29.2767 29.802 29.216C29.8907 29.1553 29.935 29.076 29.935 28.978C29.935 28.9127 29.9163 28.8543 29.879 28.803C29.8463 28.7517 29.7717 28.6933 29.655 28.628C29.5383 28.5627 29.3563 28.4787 29.109 28.376C28.871 28.2733 28.675 28.173 28.521 28.075C28.367 27.9723 28.2527 27.851 28.178 27.711C28.1033 27.5663 28.066 27.3867 28.066 27.172C28.066 26.8173 28.2037 26.5513 28.479 26.374C28.7543 26.1967 29.1207 26.108 29.578 26.108C29.816 26.108 30.0423 26.1313 30.257 26.178C30.4717 26.2247 30.6933 26.3017 30.922 26.409L30.607 27.158C30.481 27.102 30.3597 27.053 30.243 27.011C30.1263 26.969 30.012 26.9363 29.9 26.913C29.7927 26.8897 29.6807 26.878 29.564 26.878C29.41 26.878 29.2933 26.899 29.214 26.941C29.1393 26.983 29.102 27.046 29.102 27.13C29.102 27.1907 29.1207 27.2467 29.158 27.298C29.2 27.3447 29.277 27.396 29.389 27.452C29.5057 27.508 29.676 27.5827 29.9 27.676C30.1193 27.7647 30.3083 27.858 30.467 27.956C30.6257 28.0493 30.747 28.1683 30.831 28.313C30.9197 28.453 30.964 28.6373 30.964 28.866Z" fill="white"/>
<path d="M0.769539 31.75H31.23V33.15H0.769539V31.75Z" fill="white"/>
</g>
<defs>
<clipPath id="clip0_550_695">
<rect width="32" height="34" fill="white"/>
</clipPath>
</defs>
</svg>
