<svg width="33" height="32" viewBox="0 0 33 32" fill="none" xmlns="http://www.w3.org/2000/svg">
<path d="M7.11621 12C7.11621 13.1819 7.349 14.3522 7.8013 15.4442C8.25359 16.5361 8.91652 17.5282 9.75225 18.364C10.588 19.1997 11.5801 19.8626 12.6721 20.3149C13.764 20.7672 14.9343 21 16.1162 21C17.2981 21 18.4684 20.7672 19.5604 20.3149C20.6523 19.8626 21.6444 19.1997 22.4802 18.364C23.3159 17.5282 23.9788 16.5361 24.4311 15.4442C24.8834 14.3522 25.1162 13.1819 25.1162 12C25.1162 10.8181 24.8834 9.64778 24.4311 8.55585C23.9788 7.46392 23.3159 6.47177 22.4802 5.63604C21.6444 4.80031 20.6523 4.13738 19.5604 3.68508C18.4684 3.23279 17.2981 3 16.1162 3C14.9343 3 13.764 3.23279 12.6721 3.68508C11.5801 4.13738 10.588 4.80031 9.75225 5.63604C8.91652 6.47177 8.25359 7.46392 7.8013 8.55585C7.349 9.64778 7.11621 10.8181 7.11621 12Z" stroke="#AAAAAA" stroke-width="2" stroke-linecap="round" stroke-linejoin="round"/>
<path d="M13.1162 10C13.1162 10.7956 13.4323 11.5587 13.9949 12.1213C14.5575 12.6839 15.3206 13 16.1162 13C16.9119 13 17.6749 12.6839 18.2375 12.1213C18.8001 11.5587 19.1162 10.7956 19.1162 10C19.1162 9.20435 18.8001 8.44129 18.2375 7.87868C17.6749 7.31607 16.9119 7 16.1162 7C15.3206 7 14.5575 7.31607 13.9949 7.87868C13.4323 8.44129 13.1162 9.20435 13.1162 10Z" stroke="#AAAAAA" stroke-width="2" stroke-linecap="round" stroke-linejoin="round"/>
<path d="M10.2842 18.849C10.5317 18.0252 11.0382 17.3032 11.7285 16.79C12.4188 16.2768 13.2561 15.9997 14.1162 16H18.1162C18.9775 15.9997 19.8159 16.2774 20.5066 16.7918C21.1974 17.3062 21.7037 18.0298 21.9502 18.855" stroke="#AAAAAA" stroke-width="2" stroke-linecap="round" stroke-linejoin="round"/>
<path d="M12.2707 28.236C12.2707 28.5813 12.1937 28.894 12.0397 29.174C11.8904 29.4493 11.6617 29.6687 11.3537 29.832C11.0504 29.9907 10.6654 30.07 10.1987 30.07C9.53606 30.07 9.03206 29.902 8.68673 29.566C8.3414 29.2253 8.16873 28.7773 8.16873 28.222V25.002H9.22573V28.061C9.22573 28.4717 9.30973 28.761 9.47773 28.929C9.64573 29.097 9.8954 29.181 10.2267 29.181C10.4601 29.181 10.6491 29.1413 10.7937 29.062C10.9384 28.9827 11.0434 28.859 11.1087 28.691C11.1787 28.523 11.2137 28.3107 11.2137 28.054V25.002H12.2707V28.236ZM16.0777 28.866C16.0777 29.1227 16.0171 29.342 15.8957 29.524C15.7744 29.7013 15.5924 29.8367 15.3497 29.93C15.1071 30.0233 14.8061 30.07 14.4467 30.07C14.1807 30.07 13.9521 30.0513 13.7607 30.014C13.5694 29.9813 13.3781 29.9253 13.1867 29.846V28.985C13.3921 29.0783 13.6137 29.1553 13.8517 29.216C14.0897 29.2767 14.2997 29.307 14.4817 29.307C14.6871 29.307 14.8317 29.2767 14.9157 29.216C15.0044 29.1553 15.0487 29.076 15.0487 28.978C15.0487 28.9127 15.0301 28.8543 14.9927 28.803C14.9601 28.7517 14.8854 28.6933 14.7687 28.628C14.6521 28.5627 14.4701 28.4787 14.2227 28.376C13.9847 28.2733 13.7887 28.173 13.6347 28.075C13.4807 27.9723 13.3664 27.851 13.2917 27.711C13.2171 27.5663 13.1797 27.3867 13.1797 27.172C13.1797 26.8173 13.3174 26.5513 13.5927 26.374C13.8681 26.1967 14.2344 26.108 14.6917 26.108C14.9297 26.108 15.1561 26.1313 15.3707 26.178C15.5854 26.2247 15.8071 26.3017 16.0357 26.409L15.7207 27.158C15.5947 27.102 15.4734 27.053 15.3567 27.011C15.2401 26.969 15.1257 26.9363 15.0137 26.913C14.9064 26.8897 14.7944 26.878 14.6777 26.878C14.5237 26.878 14.4071 26.899 14.3277 26.941C14.2531 26.983 14.2157 27.046 14.2157 27.13C14.2157 27.1907 14.2344 27.2467 14.2717 27.298C14.3137 27.3447 14.3907 27.396 14.5027 27.452C14.6194 27.508 14.7897 27.5827 15.0137 27.676C15.2331 27.7647 15.4221 27.858 15.5807 27.956C15.7394 28.0493 15.8607 28.1683 15.9447 28.313C16.0334 28.453 16.0777 28.6373 16.0777 28.866ZM18.4652 26.108C18.8199 26.108 19.1232 26.1757 19.3752 26.311C19.6319 26.4463 19.8302 26.6423 19.9702 26.899C20.1102 27.1557 20.1802 27.4707 20.1802 27.844V28.348H17.7162C17.7256 28.642 17.8119 28.873 17.9752 29.041C18.1432 29.209 18.3742 29.293 18.6682 29.293C18.9156 29.293 19.1396 29.2697 19.3402 29.223C19.5409 29.1717 19.7486 29.0947 19.9632 28.992V29.797C19.7766 29.8903 19.5782 29.958 19.3682 30C19.1629 30.0467 18.9132 30.07 18.6192 30.07C18.2366 30.07 17.8982 30 17.6042 29.86C17.3102 29.7153 17.0792 29.4983 16.9112 29.209C16.7432 28.9197 16.6592 28.5557 16.6592 28.117C16.6592 27.669 16.7339 27.298 16.8832 27.004C17.0372 26.7053 17.2496 26.4813 17.5202 26.332C17.7909 26.1827 18.1059 26.108 18.4652 26.108ZM18.4722 26.85C18.2716 26.85 18.1036 26.9153 17.9682 27.046C17.8376 27.1767 17.7606 27.3797 17.7372 27.655H19.2002C19.2002 27.501 19.1722 27.3633 19.1162 27.242C19.0649 27.1207 18.9856 27.025 18.8782 26.955C18.7709 26.885 18.6356 26.85 18.4722 26.85ZM23.161 26.108C23.2123 26.108 23.273 26.1103 23.343 26.115C23.413 26.1197 23.469 26.1267 23.511 26.136L23.434 27.116C23.4013 27.1067 23.3523 27.0997 23.287 27.095C23.2263 27.0857 23.1726 27.081 23.126 27.081C22.9906 27.081 22.86 27.0997 22.734 27.137C22.608 27.1697 22.4936 27.2233 22.391 27.298C22.293 27.3727 22.2136 27.473 22.153 27.599C22.097 27.7203 22.069 27.872 22.069 28.054V30H21.026V26.178H21.817L21.971 26.822H22.02C22.0946 26.6913 22.188 26.5723 22.3 26.465C22.412 26.3577 22.5403 26.2713 22.685 26.206C22.8343 26.1407 22.993 26.108 23.161 26.108Z" fill="#AAAAAA"/>
</svg>
