<svg width="32" height="34" viewBox="0 0 32 34" fill="none" xmlns="http://www.w3.org/2000/svg">
<path d="M7 12C7 13.1819 7.23279 14.3522 7.68508 15.4442C8.13738 16.5361 8.80031 17.5282 9.63604 18.364C10.4718 19.1997 11.4639 19.8626 12.5558 20.3149C13.6478 20.7672 14.8181 21 16 21C17.1819 21 18.3522 20.7672 19.4442 20.3149C20.5361 19.8626 21.5282 19.1997 22.364 18.364C23.1997 17.5282 23.8626 16.5361 24.3149 15.4442C24.7672 14.3522 25 13.1819 25 12C25 10.8181 24.7672 9.64778 24.3149 8.55585C23.8626 7.46392 23.1997 6.47177 22.364 5.63604C21.5282 4.80031 20.5361 4.13738 19.4442 3.68508C18.3522 3.23279 17.1819 3 16 3C14.8181 3 13.6478 3.23279 12.5558 3.68508C11.4639 4.13738 10.4718 4.80031 9.63604 5.63604C8.80031 6.47177 8.13738 7.46392 7.68508 8.55585C7.23279 9.64778 7 10.8181 7 12Z" stroke="white" stroke-width="2" stroke-linecap="round" stroke-linejoin="round"/>
<path d="M13 10C13 10.7956 13.3161 11.5587 13.8787 12.1213C14.4413 12.6839 15.2044 13 16 13C16.7956 13 17.5587 12.6839 18.1213 12.1213C18.6839 11.5587 19 10.7956 19 10C19 9.20435 18.6839 8.44129 18.1213 7.87868C17.5587 7.31607 16.7956 7 16 7C15.2044 7 14.4413 7.31607 13.8787 7.87868C13.3161 8.44129 13 9.20435 13 10Z" stroke="white" stroke-width="2" stroke-linecap="round" stroke-linejoin="round"/>
<path d="M10.168 18.849C10.4155 18.0252 10.922 17.3032 11.6123 16.79C12.3026 16.2768 13.1399 15.9997 14 16H18C18.8613 15.9997 19.6996 16.2774 20.3904 16.7918C21.0812 17.3062 21.5875 18.0298 21.834 18.855" stroke="white" stroke-width="2" stroke-linecap="round" stroke-linejoin="round"/>
<path d="M12.1545 28.236C12.1545 28.5813 12.0775 28.894 11.9235 29.174C11.7742 29.4493 11.5455 29.6687 11.2375 29.832C10.9342 29.9907 10.5492 30.07 10.0825 30.07C9.41985 30.07 8.91585 29.902 8.57052 29.566C8.22519 29.2253 8.05252 28.7773 8.05252 28.222V25.002H9.10952V28.061C9.10952 28.4717 9.19352 28.761 9.36152 28.929C9.52952 29.097 9.77919 29.181 10.1105 29.181C10.3439 29.181 10.5329 29.1413 10.6775 29.062C10.8222 28.9827 10.9272 28.859 10.9925 28.691C11.0625 28.523 11.0975 28.3107 11.0975 28.054V25.002H12.1545V28.236ZM15.9615 28.866C15.9615 29.1227 15.9009 29.342 15.7795 29.524C15.6582 29.7013 15.4762 29.8367 15.2335 29.93C14.9909 30.0233 14.6899 30.07 14.3305 30.07C14.0645 30.07 13.8359 30.0513 13.6445 30.014C13.4532 29.9813 13.2619 29.9253 13.0705 29.846V28.985C13.2759 29.0783 13.4975 29.1553 13.7355 29.216C13.9735 29.2767 14.1835 29.307 14.3655 29.307C14.5709 29.307 14.7155 29.2767 14.7995 29.216C14.8882 29.1553 14.9325 29.076 14.9325 28.978C14.9325 28.9127 14.9139 28.8543 14.8765 28.803C14.8439 28.7517 14.7692 28.6933 14.6525 28.628C14.5359 28.5627 14.3539 28.4787 14.1065 28.376C13.8685 28.2733 13.6725 28.173 13.5185 28.075C13.3645 27.9723 13.2502 27.851 13.1755 27.711C13.1009 27.5663 13.0635 27.3867 13.0635 27.172C13.0635 26.8173 13.2012 26.5513 13.4765 26.374C13.7519 26.1967 14.1182 26.108 14.5755 26.108C14.8135 26.108 15.0399 26.1313 15.2545 26.178C15.4692 26.2247 15.6909 26.3017 15.9195 26.409L15.6045 27.158C15.4785 27.102 15.3572 27.053 15.2405 27.011C15.1239 26.969 15.0095 26.9363 14.8975 26.913C14.7902 26.8897 14.6782 26.878 14.5615 26.878C14.4075 26.878 14.2909 26.899 14.2115 26.941C14.1369 26.983 14.0995 27.046 14.0995 27.13C14.0995 27.1907 14.1182 27.2467 14.1555 27.298C14.1975 27.3447 14.2745 27.396 14.3865 27.452C14.5032 27.508 14.6735 27.5827 14.8975 27.676C15.1169 27.7647 15.3059 27.858 15.4645 27.956C15.6232 28.0493 15.7445 28.1683 15.8285 28.313C15.9172 28.453 15.9615 28.6373 15.9615 28.866ZM18.349 26.108C18.7037 26.108 19.007 26.1757 19.259 26.311C19.5157 26.4463 19.714 26.6423 19.854 26.899C19.994 27.1557 20.064 27.4707 20.064 27.844V28.348H17.6C17.6094 28.642 17.6957 28.873 17.859 29.041C18.027 29.209 18.258 29.293 18.552 29.293C18.7994 29.293 19.0234 29.2697 19.224 29.223C19.4247 29.1717 19.6324 29.0947 19.847 28.992V29.797C19.6604 29.8903 19.462 29.958 19.252 30C19.0467 30.0467 18.797 30.07 18.503 30.07C18.1204 30.07 17.782 30 17.488 29.86C17.194 29.7153 16.963 29.4983 16.795 29.209C16.627 28.9197 16.543 28.5557 16.543 28.117C16.543 27.669 16.6177 27.298 16.767 27.004C16.921 26.7053 17.1334 26.4813 17.404 26.332C17.6747 26.1827 17.9897 26.108 18.349 26.108ZM18.356 26.85C18.1554 26.85 17.9874 26.9153 17.852 27.046C17.7214 27.1767 17.6444 27.3797 17.621 27.655H19.084C19.084 27.501 19.056 27.3633 19 27.242C18.9487 27.1207 18.8694 27.025 18.762 26.955C18.6547 26.885 18.5194 26.85 18.356 26.85ZM23.0448 26.108C23.0961 26.108 23.1568 26.1103 23.2268 26.115C23.2968 26.1197 23.3528 26.1267 23.3948 26.136L23.3178 27.116C23.2851 27.1067 23.2361 27.0997 23.1708 27.095C23.1101 27.0857 23.0564 27.081 23.0098 27.081C22.8744 27.081 22.7438 27.0997 22.6178 27.137C22.4918 27.1697 22.3774 27.2233 22.2748 27.298C22.1768 27.3727 22.0974 27.473 22.0368 27.599C21.9808 27.7203 21.9528 27.872 21.9528 28.054V30H20.9098V26.178H21.7008L21.8548 26.822H21.9038C21.9784 26.6913 22.0718 26.5723 22.1838 26.465C22.2958 26.3577 22.4241 26.2713 22.5688 26.206C22.7181 26.1407 22.8768 26.108 23.0448 26.108Z" fill="white"/>
<path d="M7.45752 31.75H23.5418V33.15H7.45752V31.75Z" fill="white"/>
</svg>
